<svg width="28" height="28" viewBox="0 0 28 28" fill="none" xmlns="http://www.w3.org/2000/svg">
    <g clip-path="url(#clip0_32_1252)">
        <path d="M26.25 10.6633H1.75V16.2283H26.25V10.6633Z" stroke="currentColor" stroke-width="2" stroke-miterlimit="10"/>
        <path d="M25.1301 16.2283H2.8584V26.2499H25.1301V16.2283Z" stroke="currentColor" stroke-width="2"
              stroke-miterlimit="10"/>
        <path d="M14.0002 10.6633V4.95833C14.0002 4.10743 13.6622 3.29138 13.0605 2.6897C12.4588 2.08802 11.6428 1.75 10.7918 1.75C10.173 1.75 9.57952 1.99583 9.14193 2.43342C8.70435 2.871 8.45852 3.46449 8.45852 4.08333C8.44253 4.40514 8.49336 4.72676 8.60781 5.02795C8.72226 5.32914 8.89785 5.60336 9.12352 5.83333L14.0002 10.6167H7.14018C6.30166 10.6167 5.49747 10.2836 4.90455 9.69064C4.31162 9.09771 3.97852 8.29353 3.97852 7.455C3.97852 6.83616 4.22435 6.24267 4.66193 5.80508C5.09952 5.3675 5.69301 5.12167 6.31185 5.12167C7.65734 5.10928 8.95316 5.62929 9.91685 6.56833L14.0002 10.6633Z"
              stroke="currentColor" stroke-width="2" stroke-miterlimit="10"/>
        <path d="M14 10.71V5.00496C14 4.58364 14.083 4.16644 14.2442 3.77719C14.4055 3.38794 14.6418 3.03425 14.9397 2.73633C15.2376 2.43841 15.5913 2.20208 15.9806 2.04085C16.3698 1.87962 16.787 1.79663 17.2083 1.79663C17.8272 1.79663 18.4207 2.04246 18.8582 2.48005C19.2958 2.91763 19.5417 3.51113 19.5417 4.12996C19.5512 4.44403 19.4972 4.75679 19.383 5.04949C19.2687 5.34218 19.0965 5.60878 18.8767 5.8333L14 10.6633H20.8133C21.6519 10.6633 22.456 10.3302 23.049 9.73727C23.6419 9.14434 23.975 8.34016 23.975 7.50163C23.975 6.88279 23.7292 6.2893 23.2916 5.85172C22.854 5.41413 22.2605 5.1683 21.6417 5.1683C20.3123 5.16817 19.0355 5.68728 18.0833 6.61496L14 10.71Z"
              stroke="currentColor" stroke-width="2" stroke-miterlimit="10"/>
        <path d="M14 26.25V10.6633" stroke="currentColor" stroke-width="2" stroke-miterlimit="10"/>
    </g>
    <defs>
        <clipPath id="clip0_32_1252">
            <rect width="28" height="28" fill="white"/>
        </clipPath>
    </defs>
</svg>
