<svg width="23" height="23" viewBox="0 0 23 23" fill="none" xmlns="http://www.w3.org/2000/svg">
<path d="M12.9294 7.3999C13.6368 7.40254 14.3144 7.68469 14.8145 8.18484C15.3147 8.68499 15.5968 9.36258 15.5994 10.0699" stroke="white" stroke-width="1.5" stroke-miterlimit="10"/>
<path d="M12.9294 4.19995C14.4863 4.19995 15.9793 4.8184 17.0802 5.91923C18.181 7.02007 18.7994 8.51313 18.7994 10.07" stroke="white" stroke-width="1.5" stroke-miterlimit="10"/>
<path d="M12.9294 1C15.335 1 17.6419 1.95559 19.3429 3.65654C21.0439 5.3575 21.9994 7.66449 21.9994 10.07" stroke="white" stroke-width="1.5" stroke-miterlimit="10"/>
<path d="M18.2495 20.8801C15.8195 23.3001 10.2495 21.6701 5.78947 17.2101C1.32947 12.7501 -0.300529 7.18009 2.11947 4.75009L4.77947 2.09009L9.90947 7.22009L7.98947 9.16009C7.60354 9.54798 7.38688 10.0729 7.38688 10.6201C7.38688 11.1673 7.60354 11.6922 7.98947 12.0801L10.9195 15.0101C11.3074 15.396 11.8323 15.6127 12.3795 15.6127C12.9267 15.6127 13.4516 15.396 13.8395 15.0101L15.7795 13.0901L20.9095 18.2201L18.2495 20.8801Z" stroke="white" stroke-width="1.5" stroke-miterlimit="10"/>
</svg>
