<svg width="45" height="44" viewBox="0 0 45 44" fill="none" xmlns="http://www.w3.org/2000/svg">
<rect x="0.307617" width="44" height="44" rx="8" fill="#FFC2B8"/>
<g clip-path="url(#clip0_1_510)">
<path d="M16.3596 36C28.4356 36 35.0416 25.994 35.0416 17.332C35.0416 17.052 35.0416 16.768 35.0296 16.488C36.3157 15.557 37.4257 14.4043 38.3076 13.084C37.1062 13.6137 35.8331 13.9629 34.5296 14.12C35.9027 13.2993 36.9311 12.008 37.4236 10.486C36.1336 11.2503 34.7216 11.7868 33.2496 12.072C32.26 11.0181 30.9504 10.3199 29.5238 10.0856C28.0972 9.85124 26.6331 10.0939 25.3583 10.7759C24.0835 11.4579 23.0692 12.5413 22.4725 13.8582C21.8758 15.175 21.73 16.6519 22.0576 18.06C19.4471 17.9291 16.8932 17.251 14.5617 16.0695C12.2302 14.8881 10.173 13.2297 8.52362 11.202C7.6863 12.6482 7.43076 14.3588 7.80891 15.9866C8.18705 17.6143 9.17053 19.0371 10.5596 19.966C9.5187 19.9307 8.50066 19.6512 7.58762 19.15V19.24C7.58941 20.755 8.11423 22.2229 9.07336 23.3956C10.0325 24.5682 11.3671 25.3738 12.8516 25.676C12.2881 25.8313 11.7061 25.9087 11.1216 25.906C10.7096 25.9073 10.2984 25.8691 9.89362 25.792C10.3132 27.0962 11.1302 28.2364 12.2301 29.053C13.3301 29.8696 14.6579 30.3217 16.0276 30.346C13.7007 32.1736 10.8264 33.1649 7.86762 33.16C7.34626 33.1622 6.82526 33.1322 6.30762 33.07C9.31065 34.9846 12.7982 36.0011 16.3596 36Z" fill="#8D2210"/>
</g>
<defs>
<clipPath id="clip0_1_510">
<rect width="32" height="32" fill="white" transform="translate(6.30762 6)"/>
</clipPath>
</defs>
</svg>
