<svg width="45" height="44" viewBox="0 0 45 44" fill="none" xmlns="http://www.w3.org/2000/svg">
<rect x="0.307617" width="44" height="44" rx="8" fill="#FFC2B8"/>
<path d="M32.0276 19.476C32.0596 15.62 28.7756 12.0854 24.7076 11.596C24.6197 11.5851 24.5321 11.5717 24.4449 11.556C24.2405 11.5169 24.0331 11.4946 23.8249 11.4894C22.9903 11.4894 22.7676 12.076 22.7089 12.424C22.6516 12.764 22.7063 13.0507 22.8703 13.2734C23.1463 13.648 23.6329 13.7147 24.0236 13.768C24.1369 13.784 24.2449 13.7987 24.3356 13.8187C27.9916 14.636 29.2223 15.92 29.8236 19.5454C29.8383 19.6334 29.8449 19.7427 29.8529 19.8587C29.8796 20.292 29.9329 21.1934 30.9023 21.1934C30.9823 21.1934 31.0703 21.1867 31.1609 21.1734C32.0623 21.036 32.0343 20.212 32.0209 19.816C32.0169 19.704 32.0129 19.5987 32.0236 19.528C32.0257 19.5104 32.0266 19.4925 32.0263 19.4747L32.0276 19.476Z" fill="#8D2210"/>
<path d="M23.5876 10.1813C23.6969 10.1893 23.7983 10.1973 23.8836 10.2093C29.8876 11.1333 32.6489 13.9773 33.4129 20.028C33.4263 20.1307 33.4289 20.256 33.4303 20.388C33.4383 20.8613 33.4543 21.8453 34.5103 21.8653H34.5423C34.8743 21.8653 35.1369 21.7653 35.3263 21.568C35.6543 21.2253 35.6329 20.7147 35.6129 20.304C35.6089 20.2027 35.6049 20.108 35.6049 20.024C35.6823 13.8373 30.3249 8.22533 24.1436 8.01733C24.1169 8.01733 24.0929 8.01733 24.0689 8.02133C24.0446 8.0244 24.0201 8.02574 23.9956 8.02533C23.9329 8.02533 23.8583 8.02 23.7769 8.01467C23.6809 8.008 23.5703 8 23.4569 8C22.4729 8 22.2863 8.7 22.2623 9.11733C22.2076 10.0813 23.1396 10.1493 23.5876 10.1813ZM33.1236 27.848C32.9948 27.7501 32.8672 27.6505 32.7409 27.5493C32.0849 27.0213 31.3876 26.536 30.7143 26.0653L30.2943 25.772C29.4303 25.1653 28.6543 24.8707 27.9209 24.8707C26.9316 24.8707 26.0703 25.4173 25.3583 26.4933C25.0436 26.9707 24.6609 27.2027 24.1903 27.2027C23.8634 27.1912 23.5426 27.1108 23.2489 26.9667C20.4623 25.7027 18.4703 23.764 17.3316 21.2053C16.7809 19.968 16.9596 19.16 17.9276 18.5013C18.4783 18.128 19.5009 17.4333 19.4303 16.1013C19.3476 14.5907 16.0129 10.0427 14.6076 9.52667C14.0068 9.30752 13.3483 9.30563 12.7463 9.52133C11.1316 10.064 9.97428 11.0187 9.39428 12.2787C8.83428 13.4973 8.86094 14.928 9.46628 16.416C11.2196 20.7187 13.6836 24.4707 16.7916 27.5667C19.8329 30.5973 23.5716 33.0787 27.9023 34.944C28.2929 35.112 28.7023 35.204 29.0023 35.2707C29.1036 35.2933 29.1916 35.3133 29.2556 35.3307C29.2908 35.3402 29.3271 35.3451 29.3636 35.3453H29.3983C31.4356 35.3453 33.8823 33.484 34.6329 31.3627C35.2916 29.504 34.0889 28.5853 33.1236 27.848ZM24.4889 15.0973C24.1409 15.1053 23.4143 15.124 23.1596 15.8627C23.0396 16.2093 23.0543 16.508 23.2023 16.7547C23.4183 17.1147 23.8329 17.2267 24.2089 17.288C25.5756 17.5067 26.2783 18.2613 26.4183 19.6653C26.4836 20.3187 26.9249 20.776 27.4889 20.776C27.5317 20.7759 27.5745 20.7733 27.6169 20.768C28.2969 20.688 28.6263 20.188 28.5969 19.2827C28.6076 18.3387 28.1143 17.2667 27.2729 16.4133C26.4303 15.5573 25.4143 15.0747 24.4889 15.0973Z" fill="#8D2210"/>
</svg>
