<svg width="48" height="43" viewBox="0 0 48 43" fill="none" xmlns="http://www.w3.org/2000/svg">
<rect x="3" y="4" width="42" height="34" fill="white"/>
<path d="M39.175 19.275C39.175 19.275 39.8083 22.375 39.95 23.025H37.1667C37.4417 22.2833 38.5 19.4 38.5 19.4C38.4833 19.425 38.775 18.6416 38.9417 18.1583L39.175 19.275ZM48 6.66663V36C48 38.2083 46.2083 40 44 40H4C1.79167 40 0 38.2083 0 36V6.66663C0 4.45829 1.79167 2.66663 4 2.66663H44C46.2083 2.66663 48 4.45829 48 6.66663ZM12.7083 27.6L17.975 14.6666H14.4333L11.1583 23.5L10.8 21.7083L9.63333 15.7583C9.44167 14.9333 8.85 14.7 8.11667 14.6666H2.725L2.66667 14.925C3.98333 15.2583 5.15833 15.7416 6.18333 16.35L9.16667 27.6H12.7083ZM20.575 27.6166L22.675 14.6666H19.325L17.2333 27.6166H20.575ZM32.2333 23.3833C32.25 21.9083 31.35 20.7833 29.425 19.8583C28.25 19.2666 27.5333 18.8666 27.5333 18.2583C27.55 17.7083 28.1417 17.1416 29.4583 17.1416C30.55 17.1166 31.35 17.375 31.95 17.6333L32.25 17.775L32.7083 14.975C32.05 14.7166 31 14.425 29.7083 14.425C26.4 14.425 24.075 16.1916 24.0583 18.7083C24.0333 20.5666 25.725 21.6 26.9917 22.225C28.2833 22.8583 28.725 23.275 28.725 23.8333C28.7083 24.7 27.675 25.1 26.7167 25.1C25.3833 25.1 24.6667 24.8916 23.575 24.4083L23.1333 24.2L22.6667 27.1083C23.45 27.4666 24.9 27.7833 26.4 27.8C29.9167 27.8083 32.2083 26.0666 32.2333 23.3833ZM44 27.6166L41.3 14.6666H38.7083C37.9083 14.6666 37.3 14.9 36.9583 15.7416L31.9833 27.6166H35.5C35.5 27.6166 36.075 26.0166 36.2 25.675H40.5C40.6 26.1333 40.9 27.6166 40.9 27.6166H44Z" fill="#CA9F14"/>
</svg>
